<svg width="185.6" height="185.6" version="1.1" viewBox="0 0 185.6 185.6" xml:space="preserve" xmlns="http://www.w3.org/2000/svg"><g transform="matrix(1.3333 0 0 -1.3333 -3.36 668.16)"><path d="m10.8 431.52c0 33.87 27.454 61.32 61.32 61.32 33.87 0 61.32-27.45 61.32-61.32s-27.45-61.32-61.32-61.32c-33.866 0-61.32 27.45-61.32 61.32z" fill="#fff" fill-opacity=".70196" fill-rule="evenodd"/><path d="m10.8 431.52c0 33.87 27.454 61.32 61.32 61.32 33.87 0 61.32-27.45 61.32-61.32s-27.45-61.32-61.32-61.32c-33.866 0-61.32 27.45-61.32 61.32z" fill="none" stroke="#000" stroke-miterlimit="10" stroke-width="16.56"/><path d="m34.223 450.27 17.427 18.25 20.47-19.55 20.47 19.55 17.43-18.25-19.634-18.75 19.634-18.75-17.43-18.25-20.47 19.55-20.47-19.55-17.427 18.25 19.631 18.75z" fill="#c00000" fill-rule="evenodd"/></g></svg>
