<svg width="185.6" height="185.6" version="1.1" viewBox="0 0 185.6 185.6" xml:space="preserve" xmlns="http://www.w3.org/2000/svg"><g transform="matrix(1.3333 0 0 -1.3333 -360.8 668.16)"><path d="m278.88 431.52c0 33.87 27.45 61.32 61.32 61.32s61.32-27.45 61.32-61.32-27.45-61.32-61.32-61.32-61.32 27.45-61.32 61.32z" fill="#fff" fill-opacity=".70196" fill-rule="evenodd"/><path d="m278.88 431.52c0 33.87 27.45 61.32 61.32 61.32s61.32-27.45 61.32-61.32-27.45-61.32-61.32-61.32-61.32 27.45-61.32 61.32z" fill="none" stroke="#000" stroke-miterlimit="10" stroke-width="16.56"/><path d="m356.91 421.56h-3.55l-1.43 1.07c4.63 5.33 7.12 11.73 7.12 18.85 0 16-12.8 28.8-28.81 28.8-16 0-28.8-12.8-28.8-28.8 0-16.01 12.8-28.81 28.8-28.81 7.12 0 13.52 2.49 18.85 7.12l1.07-1.43v-3.55l22.4-22.05 6.4 6.4zm-26.67 0c-11.02 0-19.91 8.89-19.91 19.92 0 11.02 8.89 19.91 19.91 19.91 11.03 0 19.92-8.89 19.92-19.91 0-11.03-8.89-19.92-19.92-19.92z" fill="#0070c0" fill-rule="evenodd"/></g></svg>
