<svg width="164" height="314.08" version="1.1" viewBox="0 0 164 314.08" xml:space="preserve" xmlns="http://www.w3.org/2000/svg"><defs><clipPath id="b"><path d="m0 4.5776e-5h123v235.56h-123z" clip-rule="evenodd"/></clipPath><radialGradient id="a" cx="0" cy="0" r="1" gradientTransform="matrix(132.87,0,0,132.87,61.5,117.78)" gradientUnits="userSpaceOnUse"><stop stop-color="#408bce" offset="0"/><stop stop-color="#408bce" offset=".23"/><stop stop-color="#2e75b6" offset=".69"/><stop stop-color="#2b6da9" offset=".97"/><stop stop-color="#2b6da9" offset="1"/></radialGradient></defs><g transform="matrix(1.3333 0 0 -1.3333 0 314.08)"><g clip-path="url(#b)"><path d="m0 1.5259e-5h123v235.56h-123z" fill="url(#a)" fill-rule="evenodd"/></g><path d="m23.869 87.42-5.929-13.914 37.751-21.966 5.929 13.914z" fill="#ffda44" fill-rule="evenodd"/><path d="m23.869 87.42-5.929-13.914 37.751-21.966 5.929 13.914z" fill="none" stroke="#ffc000" stroke-linejoin="round" stroke-miterlimit="10" stroke-width=".14"/><path d="m55.683 51.465-31.863 18.555v-26.607l37.8-21.993v43.986z" fill="#ffcd00" fill-rule="evenodd"/><path d="m55.683 51.465-31.863 18.555v-26.607l37.8-21.993v43.986z" fill="none" stroke="#ffc000" stroke-linejoin="round" stroke-miterlimit="10" stroke-width=".14"/><path d="m67.535 51.54 37.645 21.966-5.915 13.914-37.645-21.966z" fill="#ffcd00" fill-rule="evenodd"/><path d="m67.535 51.54 37.645 21.966-5.915 13.914-37.645-21.966z" fill="none" stroke="#ffc000" stroke-linejoin="round" stroke-miterlimit="10" stroke-width=".14"/><path d="m99.3 87.427-37.733 21.953-37.747-21.953 37.747-21.967z" fill="#eebf00" fill-rule="evenodd"/><path d="m99.3 87.427-37.733 21.953-37.747-21.953 37.747-21.967z" fill="none" stroke="#ffc000" stroke-linejoin="round" stroke-miterlimit="10" stroke-width=".14"/><path d="m61.62 65.406v-43.986l37.68 21.993v26.607l-31.76-18.555z" fill="#eebf00" fill-rule="evenodd"/><path d="m61.62 65.406v-43.986l37.68 21.993v26.607l-31.76-18.555z" fill="none" stroke="#ffc000" stroke-linejoin="round" stroke-miterlimit="10" stroke-width=".14"/><path d="m84.84 125.58h-11.67v-39.42h-23.34v39.42h-11.67l23.34 23.34z" fill="#c00000" fill-rule="evenodd"/><path d="m84.84 125.58h-11.67v-39.42h-23.34v39.42h-11.67l23.34 23.34z" fill="none" stroke="#9e0000" stroke-miterlimit="8" stroke-width=".48"/><path d="m32.94 189.78c0 15.84 12.814 28.68 28.62 28.68s28.62-12.84 28.62-28.68-12.814-28.68-28.62-28.68-28.62 12.84-28.62 28.68z" fill="#fff" fill-opacity=".70196" fill-rule="evenodd"/><path d="m32.94 189.78c0 15.84 12.814 28.68 28.62 28.68s28.62-12.84 28.62-28.68-12.814-28.68-28.62-28.68-28.62 12.84-28.62 28.68z" fill="none" stroke="#000" stroke-miterlimit="8" stroke-width="8.04"/></g></svg>
